<svg width="280" height="50" viewBox="0 0 280 50" fill="none" xmlns="http://www.w3.org/2000/svg">
<g clip-path="url(#clip0_17_783)">
<g clip-path="url(#clip1_17_783)">
<path d="M32.1249 0.467788C32.1249 0.467788 -3.93641 -6.33253 0.354691 31.9229C6.36654 30.2242 11.0878 28.9489 11.0878 28.9489C11.0878 28.9489 9.37118 10.2456 27.8323 11.5204C30.4078 7.26963 32.1249 0.467788 32.1249 0.467788ZM17.958 38.7242C17.958 42.4809 14.8825 45.526 11.0878 45.526C7.29468 45.526 4.22022 42.4804 4.22022 38.7242C4.22022 34.968 7.29416 31.9234 11.0878 31.9234C14.8825 31.9234 17.958 34.968 17.958 38.7242ZM18.1171 49.5872C18.1171 49.5872 54.2426 56.0495 49.5855 17.8353C43.5906 19.5904 38.8806 20.9109 38.8806 20.9109C38.8806 20.9109 40.778 39.5974 22.305 38.4934C19.7701 42.7686 18.1171 49.5872 18.1171 49.5872ZM31.9191 11.1987C31.8837 7.44295 34.9283 4.36987 38.7225 4.33328C42.5151 4.29872 45.6209 7.31385 45.6553 11.0695C45.6923 14.8263 42.645 17.8999 38.8519 17.9359C35.0598 17.9705 31.9545 14.9554 31.9191 11.1987Z" fill="#FFC107"/>
</g>
<path d="M62.5284 11.4091H70.1136L78.125 30.9545H78.4659L86.4773 11.4091H94.0625V40.5H88.0966V21.5653H87.8551L80.3267 40.358H76.2642L68.7358 21.4943H68.4943V40.5H62.5284V11.4091ZM105.238 40.9119C103.846 40.9119 102.605 40.6705 101.516 40.1875C100.427 39.6951 99.5656 38.9706 98.9311 38.0142C98.3061 37.0483 97.9936 35.8456 97.9936 34.4062C97.9936 33.1941 98.2161 32.1761 98.6612 31.3523C99.1063 30.5284 99.7124 29.8655 100.479 29.3636C101.246 28.8617 102.118 28.483 103.093 28.2273C104.078 27.9716 105.11 27.7917 106.19 27.6875C107.459 27.5549 108.481 27.4318 109.258 27.3182C110.034 27.1951 110.598 27.0152 110.948 26.7784C111.299 26.5417 111.474 26.1913 111.474 25.7273V25.642C111.474 24.7424 111.19 24.0464 110.621 23.554C110.063 23.0616 109.267 22.8153 108.235 22.8153C107.146 22.8153 106.28 23.0568 105.636 23.5398C104.992 24.0133 104.566 24.6098 104.357 25.3295L98.7607 24.875C99.0447 23.5492 99.6035 22.4034 100.437 21.4375C101.27 20.4621 102.345 19.714 103.661 19.1932C104.987 18.6629 106.521 18.3977 108.263 18.3977C109.476 18.3977 110.636 18.5398 111.744 18.8239C112.861 19.108 113.851 19.5483 114.712 20.1449C115.584 20.7415 116.27 21.5085 116.772 22.446C117.274 23.3741 117.525 24.4867 117.525 25.7841V40.5H111.786V37.4744H111.616C111.265 38.1562 110.797 38.7576 110.21 39.2784C109.622 39.7898 108.917 40.1922 108.093 40.4858C107.269 40.7699 106.317 40.9119 105.238 40.9119ZM106.971 36.7358C107.861 36.7358 108.647 36.5606 109.329 36.2102C110.011 35.8504 110.546 35.3674 110.934 34.7614C111.322 34.1553 111.516 33.4687 111.516 32.7017V30.3864C111.327 30.5095 111.067 30.6231 110.735 30.7273C110.413 30.822 110.049 30.9119 109.641 30.9972C109.234 31.0729 108.827 31.1439 108.42 31.2102C108.013 31.267 107.643 31.3191 107.312 31.3665C106.602 31.4706 105.981 31.6364 105.451 31.8636C104.921 32.0909 104.509 32.3987 104.215 32.7869C103.922 33.1657 103.775 33.6392 103.775 34.2074C103.775 35.0312 104.073 35.661 104.67 36.0966C105.276 36.5227 106.043 36.7358 106.971 36.7358ZM122.219 40.5V18.6818H128.086V22.4886H128.313C128.711 21.1345 129.379 20.1117 130.316 19.4205C131.254 18.7197 132.333 18.3693 133.555 18.3693C133.858 18.3693 134.184 18.3883 134.535 18.4261C134.885 18.464 135.193 18.5161 135.458 18.5824V23.9517C135.174 23.8665 134.781 23.7907 134.279 23.7244C133.777 23.6581 133.318 23.625 132.901 23.625C132.011 23.625 131.216 23.8191 130.515 24.2074C129.824 24.5862 129.274 25.1165 128.867 25.7983C128.469 26.4801 128.271 27.2661 128.271 28.1562V40.5H122.219ZM144.07 34.2216L144.084 26.9631H144.964L151.953 18.6818H158.899L149.51 29.6477H148.075L144.07 34.2216ZM138.587 40.5V11.4091H144.638V40.5H138.587ZM152.223 40.5L145.803 30.9972L149.837 26.7216L159.311 40.5H152.223ZM170.913 40.9261C168.668 40.9261 166.737 40.4716 165.117 39.5625C163.507 38.6439 162.267 37.3466 161.396 35.6705C160.524 33.9848 160.089 31.9915 160.089 29.6903C160.089 27.446 160.524 25.4763 161.396 23.7812C162.267 22.0862 163.493 20.7652 165.075 19.8182C166.665 18.8712 168.531 18.3977 170.671 18.3977C172.111 18.3977 173.451 18.6297 174.691 19.0938C175.941 19.5483 177.03 20.2348 177.958 21.1534C178.896 22.072 179.625 23.2273 180.146 24.6193C180.666 26.0019 180.927 27.6212 180.927 29.4773V31.1392H162.504V27.3892H175.231C175.231 26.518 175.041 25.7462 174.663 25.0739C174.284 24.4015 173.758 23.8759 173.086 23.4972C172.423 23.1089 171.651 22.9148 170.771 22.9148C169.852 22.9148 169.038 23.1278 168.327 23.554C167.627 23.9706 167.077 24.5341 166.68 25.2443C166.282 25.9451 166.078 26.7263 166.069 27.5881V31.1534C166.069 32.233 166.268 33.1657 166.665 33.9517C167.073 34.7377 167.646 35.3438 168.384 35.7699C169.123 36.196 169.999 36.4091 171.012 36.4091C171.684 36.4091 172.3 36.3144 172.859 36.125C173.417 35.9356 173.896 35.6515 174.293 35.2727C174.691 34.8939 174.994 34.4299 175.202 33.8807L180.799 34.25C180.515 35.5947 179.933 36.7689 179.052 37.7727C178.181 38.767 177.054 39.5436 175.671 40.1023C174.298 40.6515 172.712 40.9261 170.913 40.9261ZM196.481 18.6818V23.2273H183.342V18.6818H196.481ZM186.325 13.4545H192.376V33.7955C192.376 34.3542 192.461 34.7898 192.631 35.1023C192.802 35.4053 193.039 35.6184 193.342 35.7415C193.654 35.8646 194.014 35.9261 194.421 35.9261C194.705 35.9261 194.989 35.9025 195.273 35.8551C195.558 35.7983 195.775 35.7557 195.927 35.7273L196.879 40.2301C196.576 40.3248 196.149 40.4337 195.6 40.5568C195.051 40.6894 194.383 40.7699 193.597 40.7983C192.139 40.8551 190.861 40.661 189.762 40.2159C188.673 39.7708 187.826 39.0795 187.219 38.142C186.613 37.2045 186.315 36.0208 186.325 34.5909V13.4545ZM201.005 40.5V11.4091H207.156V23.4119H219.641V11.4091H225.778V40.5H219.641V28.483H207.156V40.5H201.005ZM244.727 31.2102V18.6818H250.778V40.5H244.968V36.5369H244.741C244.248 37.8153 243.429 38.8428 242.283 39.6193C241.147 40.3958 239.76 40.7841 238.121 40.7841C236.663 40.7841 235.38 40.4527 234.272 39.7898C233.164 39.1269 232.298 38.1847 231.673 36.9631C231.057 35.7415 230.745 34.2784 230.735 32.5739V18.6818H236.786V31.4943C236.796 32.7822 237.141 33.8002 237.823 34.5483C238.505 35.2964 239.419 35.6705 240.565 35.6705C241.294 35.6705 241.976 35.5047 242.61 35.1733C243.245 34.8324 243.756 34.3305 244.144 33.6676C244.542 33.0047 244.736 32.1856 244.727 31.2102ZM255.732 40.5V11.4091H261.783V22.3466H261.967C262.232 21.7595 262.616 21.1629 263.118 20.5568C263.629 19.9413 264.292 19.4299 265.107 19.0227C265.93 18.6061 266.953 18.3977 268.175 18.3977C269.766 18.3977 271.233 18.8144 272.578 19.6477C273.923 20.4716 274.998 21.7169 275.803 23.3835C276.607 25.0407 277.01 27.1193 277.01 29.6193C277.01 32.053 276.617 34.108 275.831 35.7841C275.054 37.4508 273.994 38.715 272.649 39.5767C271.314 40.429 269.818 40.8551 268.161 40.8551C266.986 40.8551 265.987 40.661 265.163 40.2727C264.349 39.8845 263.681 39.3968 263.161 38.8097C262.64 38.2131 262.242 37.6117 261.967 37.0057H261.697V40.5H255.732ZM261.655 29.5909C261.655 30.8883 261.835 32.0199 262.195 32.9858C262.554 33.9517 263.075 34.7045 263.757 35.2443C264.439 35.7746 265.268 36.0398 266.243 36.0398C267.228 36.0398 268.061 35.7699 268.743 35.2301C269.425 34.6809 269.941 33.9233 270.291 32.9574C270.651 31.982 270.831 30.8598 270.831 29.5909C270.831 28.3314 270.656 27.2235 270.305 26.267C269.955 25.3106 269.439 24.5625 268.757 24.0227C268.075 23.483 267.237 23.2131 266.243 23.2131C265.258 23.2131 264.425 23.4735 263.743 23.9943C263.071 24.5152 262.554 25.2538 262.195 26.2102C261.835 27.1667 261.655 28.2936 261.655 29.5909Z" fill="#FFC107"/>
</g>
<defs>
<clipPath id="clip0_17_783">
<rect width="280" height="50" fill="white"/>
</clipPath>
<clipPath id="clip1_17_783">
<rect width="50" height="50" fill="white"/>
</clipPath>
</defs>
</svg>
