<svg width="18" height="20" viewBox="0 0 18 20" fill="none" xmlns="http://www.w3.org/2000/svg">
<path fill-rule="evenodd" clip-rule="evenodd" d="M7.75 0C7.27654 0 6.84371 0.2675 6.63196 0.690987L5.72746 2.5H1.5C0.80965 2.5 0.25 3.05965 0.25 3.75C0.25 4.44035 0.80965 5 1.5 5V17.5C1.5 18.8807 2.61929 20 4 20H14C15.3807 20 16.5 18.8807 16.5 17.5V5C17.1904 5 17.75 4.44035 17.75 3.75C17.75 3.05965 17.1904 2.5 16.5 2.5H12.2725L11.368 0.690987C11.1562 0.2675 10.7235 0 10.25 0H7.75ZM5.25 7.5C5.25 6.80965 5.80965 6.25 6.5 6.25C7.19035 6.25 7.75 6.80965 7.75 7.5V15C7.75 15.6904 7.19035 16.25 6.5 16.25C5.80965 16.25 5.25 15.6904 5.25 15V7.5ZM11.5 6.25C10.8096 6.25 10.25 6.80965 10.25 7.5V15C10.25 15.6904 10.8096 16.25 11.5 16.25C12.1904 16.25 12.75 15.6904 12.75 15V7.5C12.75 6.80965 12.1904 6.25 11.5 6.25Z" fill="#7A8A99"/>
</svg>
