<svg width="48" height="48" viewBox="0 0 48 48" fill="none" xmlns="http://www.w3.org/2000/svg">
<g clip-path="url(#clip0_25_706)">
<rect width="48" height="48" fill="black"/>
<path d="M20.8983 20.6006V19.3549C20.4754 19.2978 20.0454 19.2622 19.6012 19.2622C14.3072 19.2552 10 23.6048 10 28.9583C10 32.2402 11.6214 35.1448 14.1027 36.9032C12.5025 35.1733 11.5227 32.8453 11.5227 30.2967C11.5227 25.0215 15.71 20.7216 20.8983 20.6006Z" fill="#25F4EE"/>
<path d="M21.1307 34.7248C23.4923 34.7248 25.4238 32.824 25.5085 30.4605L25.5155 9.33838H29.3363C29.2587 8.90411 29.2164 8.45562 29.2164 8H23.9999L23.9928 29.1221C23.9083 31.4857 21.9767 33.3864 19.6151 33.3864C18.882 33.3864 18.1912 33.2013 17.5779 32.8738C18.3674 33.9915 19.6645 34.7248 21.1307 34.7248Z" fill="#25F4EE"/>
<path d="M36.4777 16.5072V15.3326C35.0185 15.3326 33.6649 14.8983 32.5229 14.1437C33.538 15.3184 34.9127 16.1727 36.4777 16.5072Z" fill="#25F4EE"/>
<path d="M32.523 14.1437C31.4091 12.8552 30.7395 11.1751 30.7395 9.33838H29.3438C29.7032 11.3459 30.8876 13.0688 32.523 14.1437Z" fill="#FE2C55"/>
<path d="M19.6083 24.5232C17.1904 24.5232 15.2236 26.5094 15.2236 28.9512C15.2236 30.6527 16.1823 32.1334 17.5781 32.8738C17.0565 32.1477 16.7463 31.2578 16.7463 30.2896C16.7463 27.8478 18.7131 25.8615 21.1311 25.8615C21.5822 25.8615 22.0192 25.9398 22.4281 26.068V20.6861C22.0051 20.6291 21.5751 20.5934 21.1311 20.5934C21.0535 20.5934 20.983 20.6006 20.9054 20.6006V24.7296C20.4895 24.6014 20.0595 24.5232 19.6083 24.5232Z" fill="#FE2C55"/>
<path d="M36.4773 16.5072V20.6006C33.7703 20.6006 31.2608 19.725 29.2164 18.2442V28.9584C29.2164 34.3048 24.9093 38.6616 19.6081 38.6616C17.5638 38.6616 15.6605 38.0066 14.1025 36.9032C15.8578 38.8039 18.3604 40 21.1308 40C26.4248 40 30.7391 35.6503 30.7391 30.2967V19.5826C32.7834 21.0634 35.2929 21.939 37.9999 21.939V16.671C37.4712 16.671 36.9637 16.614 36.4773 16.5072Z" fill="#FE2C55"/>
<path d="M29.2164 28.9584V18.2442C31.2607 19.725 33.7703 20.6006 36.4773 20.6006V16.5072C34.9123 16.1727 33.5377 15.3184 32.5226 14.1437C30.8871 13.0688 29.7099 11.3459 29.3362 9.33838H25.5155L25.5084 30.4604C25.4239 32.8239 23.4923 34.7248 21.1308 34.7248C19.6645 34.7248 18.3745 33.9915 17.5708 32.8809C16.175 32.1334 15.2163 30.6599 15.2163 28.9584C15.2163 26.5166 17.1831 24.5303 19.601 24.5303C20.0522 24.5303 20.4893 24.6086 20.8981 24.7368V20.6077C15.7098 20.7216 11.5225 25.0215 11.5225 30.2967C11.5225 32.8453 12.5023 35.1662 14.1025 36.9032C15.6604 38.0066 17.5638 38.6616 19.6081 38.6616C24.9022 38.6616 29.2164 34.3047 29.2164 28.9584Z" fill="white"/>
</g>
<rect x="0.5" y="0.5" width="47" height="47" rx="7.5" stroke="black" stroke-opacity="0.1"/>
<defs>
<clipPath id="clip0_25_706">
<rect width="48" height="48" rx="8" fill="white"/>
</clipPath>
</defs>
</svg>
