<svg width="48" height="48" viewBox="0 0 48 48" fill="none" xmlns="http://www.w3.org/2000/svg">
<g clip-path="url(#clip0_25_722)">
<path d="M48 0H0V48H48V0Z" fill="#25D366"/>
<path fill-rule="evenodd" clip-rule="evenodd" d="M35 12.8125C32.1875 10 28.4375 8.5 24.5 8.5C16.25 8.5 9.5 15.25 9.5 23.5C9.5 26.125 10.25 28.75 11.5625 31L9.5 38.5L17.375 36.4375C19.625 37.5625 22.0625 38.3125 24.5 38.3125C32.75 38.3125 39.5 31.5625 39.5 23.3125C39.5 19.375 37.8125 15.625 35 12.8125ZM24.5 35.875C22.25 35.875 20 35.3125 18.125 34.1875L17.75 34L13.0625 35.3125L14.375 30.8125L14 30.25C12.6875 28.1875 12.125 25.9375 12.125 23.6875C12.125 16.9375 17.75 11.3125 24.5 11.3125C27.875 11.3125 30.875 12.625 33.3125 14.875C35.75 17.3125 36.875 20.3125 36.875 23.6875C36.875 30.25 31.4375 35.875 24.5 35.875ZM31.25 26.5C30.875 26.3125 29 25.375 28.625 25.375C28.25 25.1875 28.0625 25.1875 27.875 25.5625C27.6875 25.9375 26.9375 26.6875 26.75 27.0625C26.5625 27.25 26.375 27.25 26 27.25C25.625 27.0625 24.5 26.6875 23 25.375C21.875 24.4375 21.125 23.125 20.9375 22.75C20.75 22.375 20.9375 22.1875 21.125 22C21.3125 21.8125 21.5 21.625 21.6875 21.4375C21.875 21.25 21.875 21.0625 22.0625 20.875C22.25 20.6875 22.0625 20.5 22.0625 20.3125C22.0625 20.125 21.3125 18.25 20.9375 17.5C20.75 16.9375 20.375 16.9375 20.1875 16.9375C20 16.9375 19.8125 16.9375 19.4375 16.9375C19.25 16.9375 18.875 16.9375 18.5 17.3125C18.125 17.6875 17.1875 18.625 17.1875 20.5C17.1875 22.375 18.5 24.0625 18.6875 24.4375C18.875 24.625 21.3125 28.5625 25.0625 30.0625C28.25 31.375 28.8125 31 29.5625 31C30.3125 31 31.8125 30.0625 32 29.3125C32.375 28.375 32.375 27.625 32.1875 27.625C32 26.6875 31.625 26.6875 31.25 26.5Z" fill="white"/>
</g>
<defs>
<clipPath id="clip0_25_722">
<rect width="48" height="48" rx="8" fill="white"/>
</clipPath>
</defs>
</svg>
